<svg id="visual" viewBox="0 0 900 600" width="900" height="600" xmlns="http://www.w3.org/2000/svg" xmlns:xlink="http://www.w3.org/1999/xlink" version="1.1"><path d="M443 0L451.7 16.7C460.3 33.3 477.7 66.7 504.3 100C531 133.3 567 166.7 571.3 200C575.7 233.3 548.3 266.7 535.2 300C522 333.3 523 366.7 532.7 400C542.3 433.3 560.7 466.7 569.5 500C578.3 533.3 577.7 566.7 577.3 583.3L577 600L0 600L0 583.3C0 566.7 0 533.3 0 500C0 466.7 0 433.3 0 400C0 366.7 0 333.3 0 300C0 266.7 0 233.3 0 200C0 166.7 0 133.3 0 100C0 66.7 0 33.3 0 16.7L0 0Z" fill="#9687f3"></path><path d="M326 0L353 16.7C380 33.3 434 66.7 441.5 100C449 133.3 410 166.7 403.7 200C397.3 233.3 423.7 266.7 418.5 300C413.3 333.3 376.7 366.7 365.5 400C354.3 433.3 368.7 466.7 368.2 500C367.7 533.3 352.3 566.7 344.7 583.3L337 600L0 600L0 583.3C0 566.7 0 533.3 0 500C0 466.7 0 433.3 0 400C0 366.7 0 333.3 0 300C0 266.7 0 233.3 0 200C0 166.7 0 133.3 0 100C0 66.7 0 33.3 0 16.7L0 0Z" fill="#8b6efa"></path><path d="M275 0L285.2 16.7C295.3 33.3 315.7 66.7 303.2 100C290.7 133.3 245.3 166.7 232.2 200C219 233.3 238 266.7 242.7 300C247.3 333.3 237.7 366.7 238.8 400C240 433.3 252 466.7 251.8 500C251.7 533.3 239.3 566.7 233.2 583.3L227 600L0 600L0 583.3C0 566.7 0 533.3 0 500C0 466.7 0 433.3 0 400C0 366.7 0 333.3 0 300C0 266.7 0 233.3 0 200C0 166.7 0 133.3 0 100C0 66.7 0 33.3 0 16.7L0 0Z" fill="#8252fe"></path><path d="M167 0L168.5 16.7C170 33.3 173 66.7 169.7 100C166.3 133.3 156.7 166.7 154.8 200C153 233.3 159 266.7 165.7 300C172.3 333.3 179.7 366.7 185.3 400C191 433.3 195 466.7 183.2 500C171.3 533.3 143.7 566.7 129.8 583.3L116 600L0 600L0 583.3C0 566.7 0 533.3 0 500C0 466.7 0 433.3 0 400C0 366.7 0 333.3 0 300C0 266.7 0 233.3 0 200C0 166.7 0 133.3 0 100C0 66.7 0 33.3 0 16.7L0 0Z" fill="#7e29ff"></path></svg>